HIERARCHY
ROOT Hips
{
	OFFSET 0.000000 0.000000 0.000000
	CHANNELS 6 Xposition Yposition Zposition Xrotation Yrotation Zrotation
	JOINT LeftUpLeg_virtual
	{
		OFFSET 0.000000 0.000000 0.000000
		CHANNELS 3 Xrotation Yrotation Zrotation
		JOINT LeftUpLeg
		{
			OFFSET 11.394100 -6.187798 -0.413800
			CHANNELS 3 Xrotation Yrotation Zrotation
			JOINT LeftLeg
			{
				OFFSET 0.430247 -32.302673 3.732800
				CHANNELS 3 Xrotation Yrotation Zrotation
				JOINT LeftFoot
				{
					OFFSET -0.430247 -48.264931 -6.423300
					CHANNELS 3 Xrotation Yrotation Zrotation
					JOINT LeftToeBase
					{
						OFFSET 4.230900 -16.068199 23.438400
						CHANNELS 3 Xrotation Yrotation Zrotation
						JOINT LeftToe_End
						{
							OFFSET 4.510700 0.695400 19.974600
							CHANNELS 3 Xrotation Yrotation Zrotation
							End Site
							{
								OFFSET 0 0 0
							}
						}
					}
				}
			}
		}
	}
	JOINT RightUpLeg_virtual
	{
		OFFSET 0.000000 0.000000 0.000000
		CHANNELS 3 Xrotation Yrotation Zrotation
		JOINT RightUpLeg
		{
			OFFSET -11.333700 -6.187798 -0.413800
			CHANNELS 3 Xrotation Yrotation Zrotation
			JOINT RightLeg
			{
				OFFSET -0.430392 -32.302628 3.733000
				CHANNELS 3 Xrotation Yrotation Zrotation
				JOINT RightFoot
				{
					OFFSET 0.430392 -48.264973 -6.423500
					CHANNELS 3 Xrotation Yrotation Zrotation
					JOINT RightToeBase
					{
						OFFSET -4.230900 -16.068199 23.438400
						CHANNELS 3 Xrotation Yrotation Zrotation
						JOINT RightToe_End
						{
							OFFSET -4.510700 0.695400 19.974600
							CHANNELS 3 Xrotation Yrotation Zrotation
							End Site
							{
								OFFSET 0 0 0
							}
						}
					}
				}
			}
		}
	}
	JOINT Spine_virtual
	{
		OFFSET 0.000000 0.000000 0.000000
		CHANNELS 3 Xrotation Yrotation Zrotation
		JOINT Spine
		{
			OFFSET -0.002400 12.777504 0.315300
			CHANNELS 3 Xrotation Yrotation Zrotation
			JOINT Spine1
			{
				OFFSET -0.002067 5.816869 0.032633
				CHANNELS 3 Xrotation Yrotation Zrotation
				JOINT Spine1_split
				{
					OFFSET -0.002067 5.816869 0.032633
					CHANNELS 3 Xrotation Yrotation Zrotation
					JOINT Spine2
					{
						OFFSET -0.002067 5.816869 0.032633
						CHANNELS 3 Xrotation Yrotation Zrotation
						JOINT Neck_virtual
						{
							OFFSET 0.000000 0.000000 0.000000
							CHANNELS 3 Xrotation Yrotation Zrotation
							JOINT Neck
							{
								OFFSET -0.003700 21.199493 -0.826900
								CHANNELS 3 Xrotation Yrotation Zrotation
								JOINT Head
								{
									OFFSET 0.000000 20.442200 4.834800
									CHANNELS 3 Xrotation Yrotation Zrotation
									JOINT HeadTop_End
									{
										OFFSET 0.000000 34.668396 4.968400
										CHANNELS 3 Xrotation Yrotation Zrotation
										End Site
										{
											OFFSET 0 0 0
										}
									}
								}
							}
						}
						JOINT LeftShoulder_virtual
						{
							OFFSET 0.000000 0.000000 0.000000
							CHANNELS 3 Xrotation Yrotation Zrotation
							JOINT LeftShoulder
							{
								OFFSET 3.288150 8.794197 -1.372250
								CHANNELS 3 Xrotation Yrotation Zrotation
								JOINT LeftShoulder_split
								{
									OFFSET 3.288150 8.794197 -1.372250
									CHANNELS 3 Xrotation Yrotation Zrotation
									JOINT LeftArm
									{
										OFFSET 11.953299 -2.279007 -0.146200
										CHANNELS 3 Xrotation Yrotation Zrotation
										JOINT LeftForeArm
										{
											OFFSET 18.448900 0.000000 0.000000
											CHANNELS 3 Xrotation Yrotation Zrotation
											JOINT LeftHand
											{
												OFFSET 29.527798 0.000000 0.000000
												CHANNELS 3 Xrotation Yrotation Zrotation
												End Site
												{
													OFFSET 0 0 0
												}
											}
										}
									}
								}
							}
						}
						JOINT RightShoulder_virtual
						{
							OFFSET 0.000000 0.000000 0.000000
							CHANNELS 3 Xrotation Yrotation Zrotation
							JOINT RightShoulder
							{
								OFFSET -3.249400 8.794197 -1.372250
								CHANNELS 3 Xrotation Yrotation Zrotation
								JOINT RightShoulder_split
								{
									OFFSET -3.249400 8.794197 -1.372250
									CHANNELS 3 Xrotation Yrotation Zrotation
									JOINT RightArm
									{
										OFFSET -11.953299 -2.279007 -0.146200
										CHANNELS 3 Xrotation Yrotation Zrotation
										JOINT RightForeArm
										{
											OFFSET -18.448900 0.000000 0.000000
											CHANNELS 3 Xrotation Yrotation Zrotation
											JOINT RightHand
											{
												OFFSET -29.527802 0.000000 0.000000
												CHANNELS 3 Xrotation Yrotation Zrotation
												End Site
												{
													OFFSET 0 0 0
												}
											}
										}
									}
								}
							}
						}
					}
				}
			}
		}
	}
}
MOTION
Frames: 11
Frame Time: 0.03333333
0.627113 59.539124 10.554276 0.000000 0.000000 0.000000 -3.254810 4.381422 0.333588 -96.714338 -10.363323 8.525159 81.527795 5.023036 2.580537 20.747420 -6.759420 -6.292063 -5.705310 0.108971 -1.968522 0.000000 0.000000 0.000000 -3.846727 5.619986 0.554027 -101.238580 7.862334 -8.747334 85.575645 -5.344143 -3.256525 19.893363 2.677741 8.115871 4.439952 1.671294 -0.089250 0.000000 0.000000 0.000000 -2.720377 0.312230 -0.617203 11.039424 -0.079327 -0.054818 0.242430 1.010529 -0.550442 0.992929 0.569928 0.136070 0.000000 0.000000 0.000000 -0.204220 0.528039 0.104526 -1.864053 -0.482641 -1.588583 -11.166676 -5.340452 -5.220916 0.000000 0.000000 0.000000 -0.714736 0.851763 -0.244427 1.620265 -16.539665 -2.972330 -1.173514 -0.228673 -1.451492 -0.178662 -17.204365 -59.252704 -2.319838 -52.589967 -1.874040 0.000000 0.000000 0.000000 0.317810 0.888419 0.207294 3.507981 -7.968912 8.720286 4.334648 3.049237 -3.659214 -9.297936 38.593806 72.602930 1.358582 60.701537 -3.058670 0.000000 0.000000 0.000000 
0.699529 59.561966 10.425011 0.000000 0.000000 0.000000 -3.041609 4.341197 0.336114 -96.757136 -10.544916 8.525230 81.323320 4.890222 2.526100 20.955109 -6.805877 -6.346968 -5.589864 0.173364 -2.137396 0.000000 0.000000 0.000000 -3.827384 5.642543 0.544295 -101.309532 7.910286 -8.731944 85.449444 -5.360592 -3.255411 20.485961 2.457677 8.035772 4.451123 1.603721 0.282273 0.000000 0.000000 0.000000 -2.680079 0.246352 -0.556456 11.057800 -0.097041 -0.053236 0.371020 1.013738 -0.572571 1.064851 0.683152 0.234580 0.000000 0.000000 0.000000 0.021190 0.504178 0.148103 -1.824230 -0.544015 -1.467424 -11.208515 -5.691720 -5.188112 0.000000 0.000000 0.000000 -0.685887 0.897876 -0.219201 1.602032 -16.379704 -2.594667 -1.179884 -0.842480 -1.108404 -0.509507 -17.378839 -59.724663 -1.746921 -52.720222 -1.705434 0.000000 0.000000 0.000000 0.378330 0.852770 0.174461 3.432455 -7.891189 8.492427 4.136150 2.943118 -3.076934 -9.530050 38.842804 73.060819 1.281759 59.521376 -2.924574 0.000000 0.000000 0.000000 
0.743266 59.510033 10.331577 0.000000 0.000000 0.000000 -2.757763 4.210869 0.263858 -97.072267 -10.676119 8.652983 81.308300 5.001573 2.316058 21.172931 -6.410305 -6.333478 -5.279670 0.298602 -2.349100 0.000000 0.000000 0.000000 -3.693042 5.735125 0.454970 -101.449032 8.046908 -8.595637 85.517978 -5.232424 -3.394153 21.215922 2.176805 8.196254 3.907428 1.578116 0.470389 0.000000 0.000000 0.000000 -2.474283 0.266359 -0.528248 11.248935 -0.110559 -0.012051 0.673822 0.994252 -0.643034 1.054599 0.874327 0.255496 0.000000 0.000000 0.000000 0.362704 0.481801 0.132125 -1.501904 -0.701525 -1.258194 -11.680467 -6.106570 -4.981464 0.000000 0.000000 0.000000 -0.425924 0.923629 -0.244364 1.773757 -15.570644 -1.034792 -0.641419 -1.018886 -0.838937 -2.278026 -17.478635 -61.716988 -0.958035 -53.374882 -1.363696 0.000000 0.000000 0.000000 0.664115 0.806506 0.077991 3.309704 -7.983778 7.586697 4.009010 2.743249 -2.368214 -10.665884 39.141919 74.269469 0.948446 58.130743 -2.379665 0.000000 0.000000 0.000000 
0.726625 59.410866 10.272270 0.000000 0.000000 0.000000 -2.387106 4.053900 0.127874 -97.501777 -10.759827 8.778982 81.459636 5.271845 2.070955 21.157660 -5.692470 -6.345495 -4.882257 0.453546 -2.536108 0.000000 0.000000 0.000000 -3.400529 5.908799 0.338810 -101.664586 8.237046 -8.293776 85.530709 -5.056121 -3.685932 21.728645 1.815685 8.500376 3.067925 1.592366 0.423366 0.000000 0.000000 0.000000 -2.069943 0.397522 -0.539060 11.577995 -0.128703 0.032607 1.110868 0.950266 -0.737965 1.032149 0.971149 0.147340 0.000000 0.000000 0.000000 0.794717 0.459497 0.067201 -0.928030 -0.901834 -0.970693 -12.525323 -6.454191 -4.695165 0.000000 0.000000 0.000000 0.029653 0.910270 -0.290261 2.065031 -14.260322 1.447851 -0.091197 -0.771278 -0.656189 -5.175059 -17.511794 -64.924343 -0.131537 -54.245434 -0.953416 0.000000 0.000000 0.000000 1.135108 0.749959 -0.055178 3.184405 -8.294968 6.143142 4.090322 2.594944 -1.661708 -12.620036 39.354020 76.079496 0.542483 56.844147 -1.623793 0.000000 0.000000 0.000000 
0.707265 59.312134 10.275681 0.000000 0.000000 0.000000 -1.929154 3.931393 -0.002265 -97.919737 -10.775948 8.822183 81.747754 5.517875 1.917267 20.807659 -4.931864 -6.571871 -4.556723 0.592069 -2.587568 0.000000 0.000000 0.000000 -2.987505 6.135264 0.245063 -101.958359 8.364193 -7.825834 85.378171 -4.953427 -4.090931 21.905834 1.267115 8.857864 2.291610 1.632842 0.157325 0.000000 0.000000 0.000000 -1.468362 0.670772 -0.571543 11.978383 -0.163924 0.032125 1.643637 0.890818 -0.822974 1.103727 0.689563 0.082772 0.000000 0.000000 0.000000 1.273454 0.432822 -0.021150 -0.149766 -1.144900 -0.608516 -13.571880 -6.570995 -4.415332 0.000000 0.000000 0.000000 0.652795 0.867542 -0.332989 2.383296 -12.605882 4.392652 0.198751 -0.375064 -0.832192 -8.690060 -17.542508 -68.800714 0.552202 -55.224668 -0.573322 0.000000 0.000000 0.000000 1.732615 0.690725 -0.190906 3.088468 -8.804184 4.403742 4.294224 2.566401 -1.079004 -15.050552 39.316249 78.347952 0.295729 55.884519 -0.901267 0.000000 0.000000 0.000000 
0.726804 59.258526 10.355350 0.000000 0.000000 0.000000 -1.368984 4.063853 -0.060311 -98.308661 -10.687089 8.710208 82.125477 5.579956 1.893657 20.103330 -4.378376 -7.077109 -4.470527 0.677132 -2.392223 0.000000 0.000000 0.000000 -2.421854 6.407751 0.233395 -102.412102 8.430245 -7.235832 85.125378 -4.949389 -4.561670 21.874237 0.498428 9.346220 1.717056 1.655105 -0.256498 0.000000 0.000000 0.000000 -0.684623 1.154918 -0.603688 12.364217 -0.226569 -0.063293 2.237485 0.823630 -0.870576 1.078263 0.365490 -0.064118 0.000000 0.000000 0.000000 1.775189 0.411746 -0.106873 0.721230 -1.393243 -0.200538 -14.620536 -6.430718 -4.229639 0.000000 0.000000 0.000000 1.384735 0.821123 -0.367134 2.667545 -10.877377 7.296236 0.266195 -0.039316 -1.349363 -12.100757 -17.506161 -72.727123 1.015903 -56.242892 -0.271766 0.000000 0.000000 0.000000 2.389156 0.642877 -0.301256 3.038489 -9.436472 2.622928 4.533910 2.633522 -0.638314 -17.641557 38.863237 80.875232 0.320160 55.311975 -0.391041 0.000000 0.000000 0.000000 
0.763066 59.245949 10.501293 0.000000 0.000000 0.000000 -0.631319 4.488838 -0.024250 -98.711321 -10.438844 8.510157 82.508412 5.415347 1.960942 19.087614 -4.125656 -7.786758 -4.559609 0.703915 -1.957902 0.000000 0.000000 0.000000 -1.651336 6.803386 0.327819 -103.072472 8.487079 -6.621976 84.929263 -5.001666 -5.082658 21.801026 -0.430610 10.057483 1.217938 1.634942 -0.760203 0.000000 0.000000 0.000000 0.275880 1.797961 -0.619422 12.728855 -0.327210 -0.267489 2.838815 0.773295 -0.883859 1.054726 0.115685 -0.194654 0.000000 0.000000 0.000000 2.270161 0.415120 -0.180396 1.544923 -1.677986 0.162831 -15.492411 -6.144883 -4.167554 0.000000 0.000000 0.000000 2.157722 0.782043 -0.400718 2.896921 -9.327405 9.729409 0.319516 0.114741 -1.686147 -14.870398 -17.343172 -76.286151 1.369051 -57.442649 0.055232 0.000000 0.000000 0.000000 3.053878 0.645828 -0.381888 3.016097 -10.072623 0.988138 4.613775 2.738984 -0.311451 -20.106456 37.882292 83.395715 0.566916 55.106205 -0.140937 0.000000 0.000000 0.000000 
0.838831 59.236736 10.814388 0.000000 0.000000 0.000000 0.335299 5.094790 0.099024 -99.241829 -10.076546 8.334783 82.817895 5.100330 1.994910 17.793838 -4.068323 -8.533894 -4.637111 0.690399 -1.400661 0.000000 0.000000 0.000000 -0.587013 7.228504 0.492716 -103.937325 8.547910 -6.047335 84.939324 -5.082556 -5.617534 21.648414 -1.473386 10.946877 0.776695 1.547770 -1.283891 0.000000 0.000000 0.000000 1.395727 2.519039 -0.581286 13.070112 -0.464782 -0.548243 3.377346 0.766293 -0.882174 1.046916 -0.110523 -0.273248 0.000000 0.000000 0.000000 2.731747 0.460594 -0.239933 2.170495 -2.002375 0.413875 -16.019227 -5.801277 -4.195490 0.000000 0.000000 0.000000 2.892024 0.776444 -0.448652 3.077902 -8.154260 11.447434 0.403432 0.071572 -1.650379 -16.559616 -16.971215 -79.093618 1.662610 -59.051616 0.468601 0.000000 0.000000 0.000000 3.684892 0.714752 -0.433416 2.981302 -10.631820 -0.385090 4.394653 2.810565 -0.094642 -22.059684 36.463419 85.605677 0.906401 55.181720 -0.125079 0.000000 0.000000 0.000000 
0.943682 59.226273 11.394157 0.000000 0.000000 0.000000 1.632425 5.758220 0.264138 -99.944772 -9.672005 8.308036 83.061562 4.762436 1.904222 16.277297 -4.028756 -9.136399 -4.547125 0.658155 -0.873783 0.000000 0.000000 0.000000 0.857792 7.633737 0.644307 -104.997295 8.657515 -5.554698 85.379414 -5.192300 -6.096637 21.290089 -2.607251 11.811199 0.864923 1.406083 -1.730058 0.000000 0.000000 0.000000 2.758818 3.212794 -0.499563 13.372197 -0.621426 -0.847116 3.815941 0.818955 -0.879895 0.913060 -0.368421 -0.330769 0.000000 0.000000 0.000000 3.126615 0.542018 -0.291948 2.513225 -2.329978 0.513150 -16.118154 -5.587359 -4.273149 0.000000 0.000000 0.000000 3.484072 0.803997 -0.524086 3.246772 -7.526446 12.408967 0.500600 0.009060 -1.292126 -17.312655 -16.265867 -81.085697 2.030327 -61.022638 1.035084 0.000000 0.000000 0.000000 4.222391 0.840795 -0.468496 2.914510 -11.047113 -1.476436 4.118134 2.724735 0.051270 -23.271742 34.920319 87.183642 1.144727 55.568875 -0.213766 0.000000 0.000000 0.000000 
1.044046 59.221169 12.327709 0.000000 0.000000 0.000000 3.287135 6.311558 0.387144 -100.845585 -9.301793 8.492626 83.350766 4.470204 1.720693 14.620589 -3.881925 -9.514936 -4.223639 0.617057 -0.490567 0.000000 0.000000 0.000000 2.684470 7.967995 0.705917 -106.182565 8.764413 -5.220209 86.293443 -5.337566 -6.437872 20.549871 -3.797643 12.528012 1.705026 1.247269 -2.018665 0.000000 0.000000 0.000000 4.448045 3.823066 -0.439692 13.628269 -0.779985 -1.090621 4.128442 0.898686 -0.878182 0.802560 -0.653258 -0.194175 0.000000 0.000000 0.000000 3.407907 0.622749 -0.342643 2.560711 -2.635844 0.474719 -15.797901 -5.621349 -4.337225 0.000000 0.000000 0.000000 3.907400 0.836206 -0.608904 3.421109 -7.437360 12.758080 0.551275 -0.063399 -0.810456 -17.230733 -15.069535 -82.345485 2.542803 -63.305950 1.816259 0.000000 0.000000 0.000000 4.614698 0.962144 -0.496834 2.844100 -11.234903 -2.258439 3.758393 2.525373 0.016256 -23.492391 33.644870 88.012240 1.190124 56.344040 -0.292512 0.000000 0.000000 0.000000 
1.077738 59.307129 13.644108 0.000000 0.000000 0.000000 5.305208 6.743971 0.401151 -101.809721 -9.031481 8.887422 83.742204 4.255776 1.531788 12.878116 -3.613447 -9.670480 -3.787448 0.552628 -0.238671 0.000000 0.000000 0.000000 4.820530 8.196282 0.650234 -107.411459 8.839622 -5.066429 87.560566 -5.493698 -6.623442 19.311089 -4.951611 13.191278 2.830862 1.095089 -2.147866 0.000000 0.000000 0.000000 6.522612 4.329454 -0.469112 13.799505 -0.911470 -1.217293 4.313607 0.971850 -0.877152 0.644069 -0.967106 0.047425 0.000000 0.000000 0.000000 3.554048 0.675422 -0.391013 2.282600 -2.875986 0.325535 -15.140684 -5.844921 -4.363065 0.000000 0.000000 0.000000 4.130990 0.842580 -0.681312 3.631833 -7.925057 12.746105 0.474915 -0.001552 -0.429730 -16.510551 -13.267088 -82.995336 2.796867 -65.646697 2.395335 0.000000 0.000000 0.000000 4.797292 1.028079 -0.517105 2.817180 -11.110777 -2.681322 3.504404 2.172206 -0.281130 -22.721606 32.860730 88.118538 0.992229 57.631538 -0.226240 0.000000 0.000000 0.000000 
